<?xml version="1.0" encoding="UTF-8" standalone="no"?>
<!-- Created with Inkscape (http://www.inkscape.org/) -->

<svg
   xmlns:dc="http://purl.org/dc/elements/1.1/"
   xmlns:cc="http://creativecommons.org/ns#"
   xmlns:rdf="http://www.w3.org/1999/02/22-rdf-syntax-ns#"
   xmlns:svg="http://www.w3.org/2000/svg"
   xmlns="http://www.w3.org/2000/svg"
   xmlns:sodipodi="http://sodipodi.sourceforge.net/DTD/sodipodi-0.dtd"
   xmlns:inkscape="http://www.inkscape.org/namespaces/inkscape"
   version="1.1"
   width="300"
   height="300"
   id="svg2"
   inkscape:version="0.48.1 "
   sodipodi:docname="Donald Duck hat icon.svg">
  <sodipodi:namedview
     pagecolor="#ffffff"
     bordercolor="#666666"
     borderopacity="1"
     objecttolerance="10"
     gridtolerance="10"
     guidetolerance="10"
     inkscape:pageopacity="0"
     inkscape:pageshadow="2"
     inkscape:window-width="1280"
     inkscape:window-height="738"
     id="namedview9"
     showgrid="false"
     inkscape:zoom="1.73"
     inkscape:cx="150"
     inkscape:cy="150"
     inkscape:window-x="-8"
     inkscape:window-y="-8"
     inkscape:window-maximized="1"
     inkscape:current-layer="svg2" />
  <metadata
     id="metadata8">
    <rdf:RDF>
      <cc:Work
         rdf:about="">
        <dc:format>image/svg+xml</dc:format>
        <dc:type
           rdf:resource="http://purl.org/dc/dcmitype/StillImage" />
        <dc:title />
      </cc:Work>
    </rdf:RDF>
  </metadata>
  <defs
     id="defs6">
    <filter
       color-interpolation-filters="sRGB"
       id="filter8344">
      <feGaussianBlur
         id="feGaussianBlur8346"
         stdDeviation="0.15916571" />
    </filter>
  </defs>
  <g
     id="g3762">
    <path
       d="M 60.663769,47.348151 C 43.400859,48.059738 28.052043,59.432537 18.783958,73.762827 5.7101059,93.639497 3.9922863,120.76697 14.921256,142.00967 c 1.436071,2.37321 2.475576,6.05235 5.57354,6.52337 2.789969,-0.65294 4.149856,-3.76463 6.073867,-5.66805 6.780429,-8.23624 13.342631,-16.71488 21.528605,-23.60118 3.12779,-1.99422 7.195063,-1.54399 10.763631,-1.72515 15.044881,0.37559 30.13783,2.96865 44.415341,7.61284 12.03174,4.30393 23.80827,9.78279 35.17509,15.60496 7.99043,4.32785 14.8837,10.44327 21.57955,16.57137 9.98132,9.29678 19.09819,19.48478 29.30761,28.53262 2.52122,2.45544 6.26117,3.22292 9.48723,1.84634 10.8925,-3.86364 19.46366,-12.57242 25.91086,-22.04293 4.18851,-6.44086 6.47632,-14.18309 5.2987,-21.91984 -1.19196,-9.93537 -9.1826,-17.48324 -17.61103,-21.6625 -12.89359,-6.27574 -27.51167,-6.32523 -41.48792,-7.11837 -10.3519,-0.27617 -20.7841,-0.72902 -31.08888,0.44954 -1.31868,0.1147 -2.28295,1.24432 -2.91319,2.19311 -3.22052,-0.9685 -5.67997,-3.74996 -8.22288,-5.89677 C 117.85598,100.97606 110.62369,87.217245 101.9419,74.669073 96.424448,65.940291 89.715208,57.627217 80.693293,52.484042 74.636573,48.94636 67.658058,47.086237 60.663769,47.348151 z"
       id="path4027"
       style="fill:#0a1ba1;fill-opacity:1;stroke:none"
       inkscape:connector-curvature="0" />
    <path
       d="M 65.587052,38.165996 C 54.194548,37.899565 42.117376,44.849889 28.642751,58.91105 1.7281753,86.997143 -3.9790911,116.9671 11.658449,148.92061 c 1.219158,2.49119 2.812973,5.42842 4.662509,8.30062 0,0 -1.154848,2.38163 -1.139482,2.49002 0,0 -2.928886,-0.98256 12.446892,1.73506 15.375779,2.71762 54.754277,8.67883 79.325812,17.02081 26.41346,8.96732 41.68938,15.98887 54.91501,24.25101 5.57127,3.4804 10.84918,7.78897 10.84918,7.78897 l 5.8532,-7.33378 8.8789,-11.07721 c 0,0 5.8481,1.56621 9.26195,1.56325 4.19694,-0.003 8.57287,-1.67751 12.21356,-4.04138 3.64069,-2.36389 5.23078,-3.50013 8.69576,-5.65822 3.46499,-2.87199 7.41148,-5.41884 10.46724,-8.73799 5.84963,-7.76036 9.78535,-15.72439 10.47764,-27.3464 0.25809,-11.22368 -3.71278,-17.50928 -7.78806,-22.65068 -8.17068,-10.30824 -23.95005,-13.23287 -51.38323,-13.12634 -7.02852,0.0561 -26.96961,-1.53486 -33.88951,-1.64915 -10.09227,-0.16667 -14.52136,0.17069 -16.56705,-2.67863 l -5.54658,-7.72548 c 0,0 -9.31181,-15.306339 -15.59617,-24.658661 C 93.764224,50.77024 80.234549,38.508553 65.587052,38.165996 z m -4.806874,10.952647 c 14.904927,-0.382049 28.801576,8.387468 39.279062,25.478824 3.35682,5.47578 6.94304,10.967958 8.01146,12.205703 1.0684,1.237748 3.43811,4.807715 5.21889,7.889618 8.3413,14.435582 25.18329,29.871292 25.1789,23.065532 -0.001,-2.53443 43.40452,-1.78275 58.55235,1.02101 26.29315,4.86668 38.29872,22.32037 29.02439,42.13983 -3.88225,8.2964 -14.7427,19.69332 -21.97431,23.11195 -11.13096,5.26199 -10.05907,5.73926 -27.87988,-12.57698 -9.06761,-9.31965 -19.1733,-18.93956 -22.38633,-21.34839 -3.21304,-2.40878 -6.14489,-4.71778 -6.54651,-5.19785 -2.62828,-3.14172 -28.40907,-15.54562 -42.98722,-20.65224 -18.154983,-6.35955 -47.795831,-9.88023 -55.805569,-6.63656 -2.984403,1.20859 -13.206869,13.31755 -23.073023,24.78268 -5.441298,6.32315 -5.266757,8.20909 -10.44858,-1.09511 -2.976837,-5.97667 -8.5481138,-33.50881 -3.458965,-49.745261 5.089134,-16.236452 15.836391,-30.474596 30.8415,-38.017386 5.993885,-3.013018 12.621463,-4.275874 18.453835,-4.42537 z M 239.50449,196.32963 c -0.059,0.0566 -0.11466,0.13648 -0.18312,0.18564 0.0228,0.0232 0.0212,0.07 0.0457,0.0928 0.0526,-0.0932 0.0856,-0.18461 0.13729,-0.27845 z"
       id="path2993"
       style="fill:#08115d"
       inkscape:connector-curvature="0" />
    <path
       d="m 271.84016,242.88753 c -4.91467,-11.16287 -12.01774,-24.82515 -25.38247,-38.20539 -7.98712,-8.39137 -17.30007,-15.37535 -26.3585,-21.24702 0,0 -4.6967,3.76588 -10.06834,7.18232 -2.98613,1.89922 -5.60921,3.1488 -8.27208,3.84656 -2.66287,0.69776 -4.41016,0.76762 -7.01174,0.62857 -2.60158,-0.139 -6.99526,-1.91315 -6.99526,-1.91315 l -7.41808,9.12859 -7.63604,9.5841 c 0,0 -0.35661,-0.70176 -9.71611,-7.34829 -9.94192,-7.06011 -43.07798,-21.15734 -61.73126,-26.67587 -19.23978,-5.69206 -27.821764,-6.96676 -39.781052,-9.52687 -11.959288,-2.5601 -26.796822,-4.86104 -34.792656,-5.94689 -7.995834,-1.08586 -9.791605,-1.33104 -13.939868,-1.68325 -0.01636,0.0409 2.706262,-3.58081 2.706262,-3.58081 0,0 -2.498975,-3.25316 -4.236965,-6.6851 C -6.0977357,116.27598 2.6222927,80.140802 35.317711,50.527603 59.562408,28.568475 84.308687,34.859409 102.47403,65.703403 l 21.34893,36.249607 3.42949,6.80237 -5.35528,-6.34759 C 118.97277,99.286184 106.38754,77.769656 103.20625,72.870698 92.074784,55.729066 85.778629,52.748626 78.940171,49.091266 52.074393,34.722895 11.692306,65.582602 7.6644395,102.58739 c -1.0013543,9.1997 -0.1775061,20.66756 2.0701295,29.14097 1.914751,7.21845 3.458264,11.18264 5.437384,14.20923 2.21315,3.38449 4.337556,5.70049 4.358486,5.67657 l 13.061306,-15.49715 c 14.947226,-17.73478 16.179923,-19.0741 37.827435,-16.77692 43.79189,4.64708 82.70734,26.29812 109.82165,61.10039 11.36957,14.59329 20.43744,14.4457 36.68703,-0.59715 24.40269,-22.59045 20.02952,-50.36072 -9.67623,-61.44563 -4.27887,-1.59669 -15.85275,-2.70985 -37.37227,-3.59443 -17.14558,-0.70479 -32.45286,-1.986 -34.01616,-2.84714 l -5.49805,-1.77499 c -0.81328,-1.35443 0.0967,-0.87134 3.89896,-0.70122 l 38.09709,1.70458 c 21.55957,0.96464 35.277,0.67546 43.4759,3.66422 8.1989,2.98876 12.66724,6.70662 17.8572,13.395 5.18996,6.68838 1.60795,3.41807 14.7336,10.70086 7.6346,4.23608 16.34354,10.75407 24.15719,19.29112 7.81367,8.53706 14.83603,18.893 19.40937,30.20449 2.6739,6.61346 5.50554,14.30925 5.50554,14.30925 0,0 -5.36149,-6.80976 -8.92469,-9.6544 -7.05015,-5.62843 -9.32091,-6.99781 -14.81928,-9.94898 -3.27644,-1.7586 -8.69596,-3.81821 -8.86465,-3.70558 0,0 1.46258,3.65102 3.81652,9.27786 3.50367,8.37518 7.3766,18.86193 9.50604,29.76373 2.12093,10.85828 3.1423,20.06179 1.58672,31.73174 -0.69419,5.2078 -3.08643,12.28619 -3.08643,12.28619 0,0 0.0406,-8.44959 -4.87407,-19.61247 z"
       id="path2991"
       style="fill:#000000"
       inkscape:connector-curvature="0"
       sodipodi:nodetypes="sccssccccssssccssscccssssscssssssccssssssscsscssscs" />
    <path
       d="m 32.54908,74.133789 c 2.424866,-2.608502 5.288267,-5.247945 8.78595,-7.823851 2.322479,-1.708206 4.929685,-3.38987 7.874473,-5.015817 0.40993,-2.557263 0.857312,-4.82613 1.330112,-6.774228 -3.68401,2.046498 -7.174071,4.323924 -10.419903,6.846091 -2.308206,1.795245 -4.487012,3.717152 -6.515288,5.772614 -6.547324,6.633917 -11.53231,14.666679 -14.15725,24.406291 3.737749,-4.645895 7.077009,-10.932361 13.101906,-17.4111 z"
       id="path288"
       style="opacity:0.34999999999999998;fill:#ffffff;"
       inkscape:connector-curvature="0" />
  </g>
</svg>
